<mxfile host="app.diagrams.net" agent="Mozilla/5.0 (Windows NT 10.0; Win64; x64) AppleWebKit/537.36 (KHTML, like Gecko) Chrome/128.0.0.0 Safari/537.36" version="24.7.16">
  <diagram id="ttWfPW6m36fiUe-fo2E1" name="Page-1">
    <mxGraphModel dx="2714" dy="1492" grid="0" gridSize="10" guides="1" tooltips="1" connect="1" arrows="1" fold="1" page="0" pageScale="1" pageWidth="827" pageHeight="1169" math="0" shadow="0">
      <root>
        <mxCell id="0" />
        <mxCell id="1" parent="0" />
        <mxCell id="taQqxp1643ADKj7QDOEq-1" value="Property Manager" style="swimlane;whiteSpace=wrap;html=1;" vertex="1" parent="1">
          <mxGeometry x="-147" y="-130" width="370" height="540" as="geometry" />
        </mxCell>
        <mxCell id="taQqxp1643ADKj7QDOEq-31" style="edgeStyle=none;curved=1;rounded=0;orthogonalLoop=1;jettySize=auto;html=1;fontSize=12;startSize=8;endSize=8;" edge="1" parent="taQqxp1643ADKj7QDOEq-1" source="taQqxp1643ADKj7QDOEq-4" target="taQqxp1643ADKj7QDOEq-13">
          <mxGeometry relative="1" as="geometry" />
        </mxCell>
        <mxCell id="taQqxp1643ADKj7QDOEq-4" value="View Tables" style="html=1;align=center;verticalAlign=top;rounded=1;absoluteArcSize=1;arcSize=10;dashed=0;whiteSpace=wrap;" vertex="1" parent="taQqxp1643ADKj7QDOEq-1">
          <mxGeometry x="124" y="51" width="140" height="40" as="geometry" />
        </mxCell>
        <mxCell id="taQqxp1643ADKj7QDOEq-5" style="edgeStyle=none;curved=1;rounded=0;orthogonalLoop=1;jettySize=auto;html=1;entryX=0.5;entryY=0;entryDx=0;entryDy=0;fontSize=12;startSize=8;endSize=8;" edge="1" parent="taQqxp1643ADKj7QDOEq-1">
          <mxGeometry relative="1" as="geometry">
            <mxPoint x="132" y="202" as="targetPoint" />
          </mxGeometry>
        </mxCell>
        <mxCell id="taQqxp1643ADKj7QDOEq-6" style="edgeStyle=none;curved=1;rounded=0;orthogonalLoop=1;jettySize=auto;html=1;entryX=0.5;entryY=0;entryDx=0;entryDy=0;fontSize=12;startSize=8;endSize=8;" edge="1" parent="taQqxp1643ADKj7QDOEq-1">
          <mxGeometry relative="1" as="geometry">
            <Array as="points">
              <mxPoint x="328" y="155" />
            </Array>
            <mxPoint x="148.94736842105272" y="218.94736842105272" as="sourcePoint" />
          </mxGeometry>
        </mxCell>
        <mxCell id="taQqxp1643ADKj7QDOEq-7" value="No" style="edgeLabel;html=1;align=center;verticalAlign=middle;resizable=0;points=[];fontSize=12;" vertex="1" connectable="0" parent="taQqxp1643ADKj7QDOEq-6">
          <mxGeometry x="-0.4746" y="24" relative="1" as="geometry">
            <mxPoint as="offset" />
          </mxGeometry>
        </mxCell>
        <mxCell id="taQqxp1643ADKj7QDOEq-13" value="Click Filter Field" style="html=1;align=center;verticalAlign=top;rounded=1;absoluteArcSize=1;arcSize=10;dashed=0;whiteSpace=wrap;" vertex="1" parent="taQqxp1643ADKj7QDOEq-1">
          <mxGeometry x="124" y="172" width="140" height="40" as="geometry" />
        </mxCell>
        <mxCell id="taQqxp1643ADKj7QDOEq-34" style="edgeStyle=none;curved=1;rounded=0;orthogonalLoop=1;jettySize=auto;html=1;entryX=0.5;entryY=0;entryDx=0;entryDy=0;fontSize=12;startSize=8;endSize=8;" edge="1" parent="taQqxp1643ADKj7QDOEq-1" source="taQqxp1643ADKj7QDOEq-32" target="taQqxp1643ADKj7QDOEq-33">
          <mxGeometry relative="1" as="geometry" />
        </mxCell>
        <mxCell id="taQqxp1643ADKj7QDOEq-35" value="If Filter Value Selected" style="edgeLabel;html=1;align=center;verticalAlign=middle;resizable=0;points=[];fontSize=12;" vertex="1" connectable="0" parent="taQqxp1643ADKj7QDOEq-34">
          <mxGeometry x="0.1687" relative="1" as="geometry">
            <mxPoint as="offset" />
          </mxGeometry>
        </mxCell>
        <mxCell id="taQqxp1643ADKj7QDOEq-32" value="Select Filter Value From Dropdown" style="html=1;align=center;verticalAlign=top;rounded=1;absoluteArcSize=1;arcSize=10;dashed=0;whiteSpace=wrap;" vertex="1" parent="taQqxp1643ADKj7QDOEq-1">
          <mxGeometry x="124" y="257" width="140" height="40" as="geometry" />
        </mxCell>
        <mxCell id="taQqxp1643ADKj7QDOEq-25" style="edgeStyle=none;curved=1;rounded=0;orthogonalLoop=1;jettySize=auto;html=1;fontSize=12;startSize=8;endSize=8;exitX=0.5;exitY=1;exitDx=0;exitDy=0;" edge="1" parent="taQqxp1643ADKj7QDOEq-1" source="taQqxp1643ADKj7QDOEq-13" target="taQqxp1643ADKj7QDOEq-32">
          <mxGeometry relative="1" as="geometry">
            <mxPoint x="458" y="173" as="targetPoint" />
          </mxGeometry>
        </mxCell>
        <mxCell id="taQqxp1643ADKj7QDOEq-38" style="edgeStyle=none;curved=1;rounded=0;orthogonalLoop=1;jettySize=auto;html=1;entryX=0.5;entryY=0;entryDx=0;entryDy=0;fontSize=12;startSize=8;endSize=8;" edge="1" parent="taQqxp1643ADKj7QDOEq-1" source="taQqxp1643ADKj7QDOEq-33" target="taQqxp1643ADKj7QDOEq-36">
          <mxGeometry relative="1" as="geometry" />
        </mxCell>
        <mxCell id="taQqxp1643ADKj7QDOEq-39" value="Yes" style="edgeLabel;html=1;align=center;verticalAlign=middle;resizable=0;points=[];fontSize=12;" vertex="1" connectable="0" parent="taQqxp1643ADKj7QDOEq-38">
          <mxGeometry x="0.2289" y="1" relative="1" as="geometry">
            <mxPoint as="offset" />
          </mxGeometry>
        </mxCell>
        <mxCell id="taQqxp1643ADKj7QDOEq-40" style="edgeStyle=none;curved=1;rounded=0;orthogonalLoop=1;jettySize=auto;html=1;entryX=0.5;entryY=0;entryDx=0;entryDy=0;fontSize=12;startSize=8;endSize=8;" edge="1" parent="taQqxp1643ADKj7QDOEq-1" source="taQqxp1643ADKj7QDOEq-33" target="taQqxp1643ADKj7QDOEq-37">
          <mxGeometry relative="1" as="geometry" />
        </mxCell>
        <mxCell id="taQqxp1643ADKj7QDOEq-41" value="No" style="edgeLabel;html=1;align=center;verticalAlign=middle;resizable=0;points=[];fontSize=12;" vertex="1" connectable="0" parent="taQqxp1643ADKj7QDOEq-40">
          <mxGeometry x="-0.0179" y="-1" relative="1" as="geometry">
            <mxPoint as="offset" />
          </mxGeometry>
        </mxCell>
        <mxCell id="taQqxp1643ADKj7QDOEq-33" value="" style="rhombus;whiteSpace=wrap;html=1;" vertex="1" parent="taQqxp1643ADKj7QDOEq-1">
          <mxGeometry x="169" y="345" width="50" height="50" as="geometry" />
        </mxCell>
        <mxCell id="taQqxp1643ADKj7QDOEq-36" value="Filter Table On Filter Value" style="html=1;align=center;verticalAlign=top;rounded=1;absoluteArcSize=1;arcSize=10;dashed=0;whiteSpace=wrap;" vertex="1" parent="taQqxp1643ADKj7QDOEq-1">
          <mxGeometry x="17" y="445" width="140" height="40" as="geometry" />
        </mxCell>
        <mxCell id="taQqxp1643ADKj7QDOEq-37" value="Show All Table Values In Table" style="html=1;align=center;verticalAlign=top;rounded=1;absoluteArcSize=1;arcSize=10;dashed=0;whiteSpace=wrap;" vertex="1" parent="taQqxp1643ADKj7QDOEq-1">
          <mxGeometry x="206" y="443" width="140" height="40" as="geometry" />
        </mxCell>
        <mxCell id="taQqxp1643ADKj7QDOEq-15" style="edgeStyle=none;curved=1;rounded=0;orthogonalLoop=1;jettySize=auto;html=1;entryX=0;entryY=0.5;entryDx=0;entryDy=0;fontSize=12;startSize=8;endSize=8;" edge="1" parent="1" source="taQqxp1643ADKj7QDOEq-16" target="taQqxp1643ADKj7QDOEq-4">
          <mxGeometry relative="1" as="geometry" />
        </mxCell>
        <mxCell id="taQqxp1643ADKj7QDOEq-16" value="" style="ellipse;fillColor=strokeColor;html=1;" vertex="1" parent="1">
          <mxGeometry x="-315" y="-71" width="19" height="19" as="geometry" />
        </mxCell>
        <mxCell id="taQqxp1643ADKj7QDOEq-26" value="" style="ellipse;html=1;shape=endState;fillColor=strokeColor;" vertex="1" parent="1">
          <mxGeometry x="123" y="458" width="22" height="22" as="geometry" />
        </mxCell>
        <mxCell id="taQqxp1643ADKj7QDOEq-28" value="" style="ellipse;html=1;shape=endState;fillColor=strokeColor;" vertex="1" parent="1">
          <mxGeometry x="-71" y="458" width="22" height="22" as="geometry" />
        </mxCell>
        <mxCell id="taQqxp1643ADKj7QDOEq-42" style="edgeStyle=none;curved=1;rounded=0;orthogonalLoop=1;jettySize=auto;html=1;entryX=0.537;entryY=0.342;entryDx=0;entryDy=0;entryPerimeter=0;fontSize=12;startSize=8;endSize=8;" edge="1" parent="1" source="taQqxp1643ADKj7QDOEq-36" target="taQqxp1643ADKj7QDOEq-28">
          <mxGeometry relative="1" as="geometry" />
        </mxCell>
        <mxCell id="taQqxp1643ADKj7QDOEq-44" style="edgeStyle=none;curved=1;rounded=0;orthogonalLoop=1;jettySize=auto;html=1;entryX=0.42;entryY=-0.143;entryDx=0;entryDy=0;entryPerimeter=0;fontSize=12;startSize=8;endSize=8;" edge="1" parent="1" source="taQqxp1643ADKj7QDOEq-37" target="taQqxp1643ADKj7QDOEq-26">
          <mxGeometry relative="1" as="geometry" />
        </mxCell>
      </root>
    </mxGraphModel>
  </diagram>
</mxfile>
